<svg width="45" height="45" viewBox="0 0 45 45" fill="none" xmlns="http://www.w3.org/2000/svg">
<path d="M45 22.6072C45 10.1216 34.9264 0 22.5 0C10.0736 0 0 10.1216 0 22.6072C0 33.7584 8.03559 43.0238 18.6061 44.8769V29.5732H12.9176V23.0661H18.6061V18.1064C18.6061 12.4645 21.9507 9.3476 27.068 9.3476C29.5193 9.3476 32.0824 9.78716 32.0824 9.78716V15.3266H29.2576C26.4744 15.3266 25.6066 17.0624 25.6066 18.8422V23.0647H31.8207L30.8263 29.5714L25.6062 29.5727V45C36.5623 43.4795 44.9995 34.0335 44.9995 22.6067L45 22.6072Z" fill="#6F1C46"/>
</svg>
