<svg width="46" height="46" viewBox="0 0 46 46" fill="none" xmlns="http://www.w3.org/2000/svg">
<path d="M23.0045 18.1945C20.3823 18.2151 18.385 20.2322 18.2999 22.5675C18.2006 25.2849 20.4337 27.2445 22.8343 27.3127C25.608 27.3913 27.6435 25.2432 27.706 22.8912C27.7764 20.2532 25.5611 18.1996 23.004 18.1945H23.0045Z" fill="#6F1C46"/>
<path d="M23 0.471802C10.2973 0.471802 0 10.4484 0 22.7555C0 35.0626 10.2973 45.0392 23 45.0392C35.7027 45.0392 46 35.0626 46 22.7555C46 10.4484 35.7027 0.471802 23 0.471802ZM37.014 28.3964L36.9618 29.7716C36.9618 29.7755 36.9609 29.7798 36.9609 29.7836C36.9409 30.2285 36.823 30.6544 36.6883 31.076C36.211 32.568 35.3229 33.79 34.0653 34.7569C33.2596 35.3765 32.3538 35.811 31.3584 36.0815C31.3545 36.0823 31.3505 36.0836 31.3465 36.0845C30.7088 36.2553 30.048 36.3322 29.3864 36.3322H16.2134C16.0637 36.3322 15.9161 36.306 15.7681 36.2828C15.7521 36.2803 15.7348 36.2803 15.7184 36.2794C15.2598 36.2562 14.8184 36.1454 14.385 36.0115C12.8605 35.5409 11.6028 34.6882 10.6124 33.4748C9.9742 32.693 9.52439 31.8171 9.2452 30.8523C9.24387 30.8476 9.24254 30.8429 9.24121 30.8386C9.06617 30.2216 8.98595 29.5827 8.98595 28.943V17.1137L9.03825 15.7381C9.03869 15.7342 9.03913 15.7299 9.03913 15.726C9.05908 15.2812 9.17696 14.8553 9.31168 14.4337C9.78896 12.9416 10.6771 11.7197 11.9347 10.7528C12.7404 10.1332 13.6462 9.6987 14.6416 9.42821C14.6456 9.42735 14.6495 9.42606 14.6535 9.4252C15.2912 9.25432 15.9515 9.17746 16.6127 9.17746H29.3221L30.2483 9.22856C30.2594 9.22941 30.2705 9.22942 30.282 9.23027C30.7407 9.25346 31.1821 9.36423 31.6155 9.49819C33.1399 9.96877 34.3976 10.8215 35.3881 12.0348C36.0262 12.8167 36.4761 13.6926 36.7552 14.6574C36.7566 14.6621 36.7579 14.6668 36.7592 14.6711C36.9343 15.2881 37.0145 15.927 37.0145 16.5667V28.396L37.014 28.3964Z" fill="#6F1C46"/>
<path d="M34.4952 16.451C34.4952 15.995 34.387 15.5515 34.2461 15.1247C33.9111 14.1084 33.2694 13.2909 32.4012 12.6405C31.5238 11.9827 30.52 11.6285 29.4174 11.6242C25.1206 11.6087 20.8232 11.6177 16.5264 11.6177C16.046 11.6177 15.5784 11.7173 15.1291 11.8564C14.0712 12.184 13.2177 12.8105 12.5454 13.6615C11.8723 14.5137 11.512 15.4875 11.5089 16.5575C11.496 20.7029 11.5045 24.8488 11.5027 28.9943C11.5027 29.4691 11.6024 29.9316 11.7482 30.3751C12.085 31.4 12.7307 32.2269 13.6086 32.88C14.4878 33.5339 15.492 33.8851 16.5959 33.8881C20.9021 33.9014 25.2083 33.8945 29.5145 33.892C29.9838 33.892 30.4416 33.7863 30.8825 33.6489C31.9222 33.3248 32.7575 32.7104 33.4271 31.8791C34.1167 31.0234 34.4783 30.0445 34.4898 28.9668C34.5111 26.8986 34.496 24.8299 34.496 22.7617C34.496 20.6579 34.4965 18.5544 34.4956 16.4506L34.4952 16.451ZM30.2258 22.766C30.2767 26.6706 26.9765 29.5507 23.4968 29.7645C19.1064 30.0342 15.4858 26.5233 15.7654 22.2692C15.9808 18.992 18.9172 15.4815 23.5434 15.7554C27.0022 15.9603 30.282 18.8412 30.2262 22.766H30.2258ZM32.3605 15.4888C32.3259 16.5931 31.5601 17.2621 30.5338 17.2762C29.546 17.29 28.6455 16.5648 28.688 15.3776C28.7226 14.4193 29.5362 13.7023 30.5147 13.6928C31.5304 13.6829 32.395 14.4669 32.3605 15.4884V15.4888Z" fill="#6F1C46"/>
</svg>
